#!OML:ASF I:\Actors\actors\Patient Classification 2\Patient 1\Session 1\actor1.ASF
:FULLY-SPECIFIED
:DEGREES
377
root -0.543684 18.6702 6.05281 1.20188 -0.522279 -4.23832
lowerback 5.69355 -0.755342 -3.11739
upperback -4.2057 -1.23989 0.835197
thorax -7.52923 -0.419685 2.77881
lowerneck -12.8538 -1.02013 -3.12369
upperneck 5.52887 -1.4485 6.89701
head 3.81331 -0.412034 2.52598
rclavicle 1.46107e-014 -1.59028e-015
rhumerus -56.6419 -9.79824 -69.6962
rradius 46.0421
rwrist 11.1919
rhand -3.82089 -44.2037
rfingers 7.12502
rthumb 21.9259 -72.9813
lclavicle 1.46107e-014 -1.59028e-015
lhumerus 33.7689 -16.6249 50.2693
lradius 138.827
lwrist 14.174
lhand -22.1466 -53.6524
lfingers 7.12502
lthumb 4.26716 -23.7154
rfemur 0 0 0
rtibia 0
rfoot 0 0
rtoes 0
lfemur -5.08753 -6.44118 -10.7363
ltibia 24.2845
lfoot -24.2528 11.9698
ltoes -55.5246
378
root -0.540506 18.6681 6.06658 1.14749 -0.493856 -4.25662
lowerback 5.83007 -0.765816 -2.94292
upperback -4.42524 -1.24236 0.872617
thorax -7.84682 -0.419702 2.72732
lowerneck -12.8878 -0.9492 -2.98811
upperneck 5.88126 -1.40125 6.97079
head 3.924 -0.375817 2.53162
rclavicle 3.32964e-015 5.56597e-015
rhumerus -56.7822 -9.9223 -69.7989
rradius 46.1475
rwrist 11.168
rhand -3.89053 -44.1958
rfingers 7.12502
rthumb 21.8591 -72.9811
lclavicle 3.32964e-015 5.56597e-015
lhumerus 33.8029 -16.7681 50.1261
lradius 138.831
lwrist 14.2737
lhand -22.2694 -53.6791
lfingers 7.12502
lthumb 4.14858 -23.7398
rfemur 0 0 0
rtibia 0
rfoot 0 0
rtoes 0
lfemur -4.99203 -6.4545 -10.7323
ltibia 24.2921
lfoot -24.3021 11.8994
ltoes -55.4506
379
root -0.536259 18.6661 6.07934 1.09943 -0.485049 -4.23042
lowerback 5.84941 -0.775462 -2.85573
upperback -4.57476 -1.2451 0.933151
thorax -8.01947 -0.418609 2.74561
lowerneck -12.9096 -0.876714 -2.83378
upperneck 6.19498 -1.34469 6.94726
head 4.01945 -0.34037 2.50472
rclavicle 1.23743e-014 -1.19271e-014
rhumerus -56.7541 -10.0752 -69.8198
rradius 46.1351
rwrist 11.2352
rhand -3.88933 -43.9598
rfingers 7.12502
rthumb 21.8602 -72.745
lclavicle 1.23743e-014 -1.19271e-014
lhumerus 33.7912 -16.7663 50.0278
lradius 138.813
lwrist 14.327
lhand -22.3392 -53.7883
lfingers 7.12502
lthumb 4.08121 -23.8477
rfemur 0 0 0
rtibia 0
rfoot 0 0
rtoes 0
lfemur -4.8979 -6.4969 -10.7921
ltibia 24.3023
lfoot -24.3754 11.9193
ltoes -55.454
380
root -0.532726 18.6648 6.0902 1.07099 -0.45135 -4.19329
lowerback 5.84873 -0.781446 -2.75835
upperback -4.70564 -1.24215 0.97568
thorax -8.16145 -0.416888 2.73774
lowerneck -12.9026 -0.822956 -2.69575
upperneck 6.441 -1.30845 6.93544
head 4.09094 -0.316001 2.48236
rclavicle 1.51076e-014 -7.95139e-016
rhumerus -56.704 -10.2517 -69.8549
rradius 46.1285
rwrist 11.3172
rhand -3.9227 -43.5814
rfingers 7.12502
rthumb 21.8282 -72.3703
lclavicle 1.51076e-014 -7.95139e-016
lhumerus 33.764 -16.8236 50.0078
lradius 138.757
lwrist 14.1986
lhand -22.4148 -53.7809
lfingers 7.12502
lthumb 4.00821 -23.8389
rfemur 0 0 0
rtibia 0
rfoot 0 0
rtoes 0
lfemur -4.84391 -6.47105 -10.8464
ltibia 24.3072
lfoot -24.3817 11.8577
ltoes -55.4851
381
root -0.530554 18.6631 6.10037 1.05604 -0.392828 -4.1994
lowerback 5.79056 -0.792059 -2.65083
upperback -4.79387 -1.23995 1.04949
thorax -8.22323 -0.417352 2.75526
lowerneck -13.0481 -0.76347 -2.65399
upperneck 6.84321 -1.26466 7.02011
head 4.23633 -0.279385 2.50759
rclavicle -1.31695e-014 1.98785e-015
rhumerus -56.6214 -10.3136 -69.944
rradius 46.2282
rwrist 11.2655
rhand -3.97622 -43.6159
rfingers 7.12502
rthumb 21.7768 -72.4108
lclavicle -1.31695e-014 1.98785e-015
lhumerus 33.7404 -16.9458 50.0822
lradius 138.674
lwrist 14.0278
lhand -22.4889 -53.7213
lfingers 7.12502
lthumb 3.93662 -23.7779
rfemur 0 0 0
rtibia 0
rfoot 0 0
rtoes 0
lfemur -4.81925 -6.40768 -10.8299
ltibia 24.3114
lfoot -24.3627 11.7077
ltoes -55.4373
382
root -0.527998 18.661 6.11058 1.02718 -0.361196 -4.20364
lowerback 5.75505 -0.788684 -2.53721
upperback -4.8841 -1.21992 1.10962
thorax -8.30208 -0.409615 2.75329
lowerneck -13.2299 -0.69535 -2.56882
upperneck 7.39178 -1.21934 7.04497
head 4.43209 -0.240983 2.50864
rclavicle -3.57812e-015 -1.19271e-015
rhumerus -56.5041 -10.4715 -69.9532
rradius 46.225
rwrist 11.2885
rhand -3.9061 -43.7534
rfingers 7.12502
rthumb 21.8441 -72.5404
lclavicle -3.57812e-015 -1.19271e-015
lhumerus 33.6782 -17.107 50.1714
lradius 138.61
lwrist 14.0797
lhand -22.3413 -53.7162
lfingers 7.12502
lthumb 4.07923 -23.7755
rfemur 0 0 0
rtibia 0
rfoot 0 0
rtoes 0
lfemur -4.76435 -6.41478 -10.8329
ltibia 24.3214
lfoot -24.411 11.6463
ltoes -55.3493
383
root -0.524031 18.6592 6.12024 0.986357 -0.346202 -4.18697
lowerback 5.73837 -0.776234 -2.39883
upperback -4.98285 -1.1889 1.12757
thorax -8.40315 -0.399011 2.69196
lowerneck -13.3201 -0.625282 -2.36543
upperneck 7.92875 -1.18122 6.95693
head 4.60869 -0.211078 2.45463
rclavicle -2.03754e-015 -6.36111e-015
rhumerus -56.4404 -10.6414 -69.9822
rradius 46.2176
rwrist 11.3128
rhand -3.8185 -43.7379
rfingers 7.12502
rthumb 21.9282 -72.5151
lclavicle -2.03754e-015 -6.36111e-015
lhumerus 33.5684 -17.3072 50.255
lradius 138.594
lwrist 14.2195
lhand -22.2342 -53.6522
lfingers 7.12502
lthumb 4.1826 -23.7135
rfemur 0 0 0
rtibia 0
rfoot 0 0
rtoes 0
lfemur -4.68793 -6.45826 -10.884
ltibia 24.3301
lfoot -24.4553 11.7123
ltoes -55.4393
384
root -0.521428 18.6569 6.13031 0.950222 -0.348855 -4.20117
lowerback 5.65104 -0.759741 -2.25565
upperback -5.04477 -1.1482 1.17099
thorax -8.42288 -0.385216 2.65133
lowerneck -13.4086 -0.556032 -2.25423
upperneck 8.45282 -1.13465 6.93731
head 4.78222 -0.175529 2.43796
rclavicle -1.81888e-014 1.59028e-015
rhumerus -56.4062 -10.6878 -70.0629
rradius 46.3123
rwrist 11.2199
rhand -3.86179 -43.7319
rfingers 7.12502
rthumb 21.8867 -72.514
lclavicle -1.81888e-014 1.59028e-015
lhumerus 33.3955 -17.5088 50.348
lradius 138.625
lwrist 14.2753
lhand -22.351 -53.5299
lfingers 7.12502
lthumb 4.06983 -23.5891
rfemur 0 0 0
rtibia 0
rfoot 0 0
rtoes 0
lfemur -4.60796 -6.43926 -10.8885
ltibia 24.327
lfoot -24.4298 11.7409
ltoes -55.54
385
root -0.521873 18.6541 6.1417 0.912986 -0.370111 -4.20822
lowerback 5.49801 -0.736108 -2.19425
upperback -5.05692 -1.10197 1.2456
thorax -8.34858 -0.36499 2.68667
lowerneck -13.5442 -0.48366 -2.27436
upperneck 8.98579 -1.07359 7.0315
head 4.96754 -0.128592 2.48038
rclavicle -8.54774e-015 7.95139e-016
rhumerus -56.3294 -10.7158 -70.1142
rradius 46.4115
rwrist 11.1025
rhand -3.99901 -43.7025
rfingers 7.12502
rthumb 21.7549 -72.5
lclavicle -8.54774e-015 7.95139e-016
lhumerus 33.2023 -17.7248 50.4458
lradius 138.653
lwrist 14.2035
lhand -22.4265 -53.4181
lfingers 7.12502
lthumb 3.9969 -23.4759
rfemur 0 0 0
rtibia 0
rfoot 0 0
rtoes 0
lfemur -4.51795 -6.38227 -10.8835
ltibia 24.32
lfoot -24.4138 11.7241
ltoes -55.5463
